<svg width="17" height="19" viewBox="0 0 17 19" fill="none" xmlns="http://www.w3.org/2000/svg">
<path fill-rule="evenodd" clip-rule="evenodd" d="M11.875 4.75V2.375C11.875 1.06332 10.8117 0 9.5 0H2.375C1.06332 0 0 1.06332 0 2.375V11.875C0 13.1867 1.06332 14.25 2.375 14.25H4.75V16.625C4.75 17.9367 5.81332 19 7.125 19H14.25C15.5617 19 16.625 17.9367 16.625 16.625V7.125C16.625 5.81332 15.5617 4.75 14.25 4.75H11.875ZM9.5 1.78125H2.375C2.04708 1.78125 1.78125 2.04708 1.78125 2.375V11.875C1.78125 12.2029 2.04708 12.4688 2.375 12.4688H4.75V7.125C4.75 5.81332 5.81332 4.75 7.125 4.75H10.0938V2.375C10.0938 2.04708 9.82792 1.78125 9.5 1.78125ZM7.125 6.53125H14.25C14.5779 6.53125 14.8438 6.79708 14.8438 7.125V16.625C14.8438 16.9529 14.5779 17.2188 14.25 17.2188H7.125C6.79708 17.2188 6.53125 16.9529 6.53125 16.625V7.125C6.53125 6.79708 6.79708 6.53125 7.125 6.53125Z" fill="currentcolor"/>
</svg>
