<svg width="359" height="202" viewBox="0 0 359 202" fill="none" xmlns="http://www.w3.org/2000/svg">
<circle cx="101" cy="101" r="100.5" fill="white" stroke="black"/>
<circle cx="258" cy="101" r="100.5" fill="#3F3F3F" stroke="black"/>
<path d="M230.987 117.837V92.0793L250.521 106.779V117.837H255.509V105.743C255.509 104.828 255.079 103.968 254.349 103.418L230.659 85.59C228.741 84.1471 226 85.515 226 87.9146V117.837H230.987Z" fill="white"/>
<path d="M285.013 117.837V92.0793L265.479 106.779V117.837H260.491V105.743C260.491 104.828 260.921 103.968 261.651 103.418L285.341 85.59C287.259 84.1471 290 85.515 290 87.9146V117.837H285.013Z" fill="white"/>
<path fill-rule="evenodd" clip-rule="evenodd" d="M78.1898 75H98.8804C111.466 75 121.006 81.7646 124.555 91.6079H131V97.5574H125.912C126.012 98.4975 126.062 99.4553 126.062 100.428V100.575C126.062 101.67 125.998 102.747 125.872 103.802H131V109.751H124.432C120.79 119.458 111.323 126.158 98.8804 126.158H78.1898V109.751H71V103.802H78.1898V97.5574H71V91.6079H78.1898V75ZM83.974 109.751V120.821H98.8804C108.079 120.821 114.913 116.387 118.094 109.751H83.974ZM119.866 103.802H83.974V97.5574H119.876C120.009 98.5401 120.077 99.5474 120.077 100.575V100.721C120.077 101.771 120.006 102.8 119.866 103.802ZM98.8804 80.3283C108.121 80.3283 114.976 84.8787 118.138 91.6079H83.974V80.3283H98.8804Z" fill="black"/>
</svg>
