<svg width="42" height="42" viewBox="0 0 42 42" fill="none" xmlns="http://www.w3.org/2000/svg">
<circle cx="21" cy="21" r="21" fill="#111111"/>
<path fill-rule="evenodd" clip-rule="evenodd" d="M14.2355 13H20.6702C24.5842 13 27.5511 15.1038 28.6549 18.165H30.6599V20.0153H29.077C29.108 20.3076 29.1238 20.6055 29.1238 20.9082V20.9536C29.1238 21.2944 29.1038 21.6293 29.0646 21.9574H30.6599V23.8077H28.6167C27.4839 26.8263 24.54 28.91 20.6702 28.91H14.2355V23.8077H12V21.9574H14.2355V20.0153H12V18.165H14.2355V13ZM16.0344 23.8077V27.2502H20.6702C23.5309 27.2502 25.6563 25.8714 26.6457 23.8077H16.0344ZM27.1968 21.9574H16.0344V20.0153H27.1996C27.2411 20.3209 27.2622 20.6342 27.2622 20.9536V20.9991C27.2622 21.3259 27.2401 21.6458 27.1968 21.9574ZM20.6702 14.6571C23.5441 14.6571 25.6759 16.0722 26.6593 18.165H16.0344V14.6571H20.6702Z" fill="white"/>
</svg>
